<svg width="1001" height="302" viewBox="0 0 1001 302" fill="none" xmlns="http://www.w3.org/2000/svg">
<path d="M157.337 129.923L131.411 135.703C129.724 131.616 127.521 128.153 124.802 125.315C122.073 122.431 118.973 120.163 115.5 118.512C112.027 116.86 108.267 115.879 104.22 115.569C100.209 115.202 96.031 115.502 91.6869 116.471C83.9691 118.191 77.5622 121.657 72.466 126.868C67.3594 132.033 63.9487 138.711 62.2338 146.904C60.5086 155.05 60.8359 164.461 63.2157 175.137C65.6368 185.997 69.3635 194.771 74.3958 201.46C79.4641 208.092 85.3783 212.643 92.1385 215.114C98.9346 217.528 106.168 217.88 113.84 216.17C118.092 215.222 121.942 213.782 125.392 211.848C128.878 209.858 131.853 207.425 134.316 204.547C136.825 201.659 138.736 198.371 140.048 194.683C141.407 190.984 142.015 186.968 141.874 182.633L167.83 176.992C168.364 183.956 167.673 190.756 165.757 197.392C163.887 204.019 160.868 210.173 156.702 215.856C152.525 221.493 147.254 226.355 140.889 230.442C134.513 234.483 127.097 237.446 118.639 239.331C106.162 242.113 94.3801 241.707 83.2949 238.115C72.2098 234.522 62.6324 227.901 54.5629 218.251C46.4934 208.602 40.7588 196.152 37.359 180.901C33.9489 165.604 33.8754 151.892 37.1387 139.764C40.3916 127.591 46.2729 117.523 54.7825 109.562C63.2921 101.602 73.7395 96.2406 86.1249 93.4796C94.0275 91.7178 101.623 91.1889 108.911 91.8927C116.199 92.5965 122.979 94.505 129.252 97.6181C135.514 100.685 141.046 104.934 145.846 110.364C150.682 115.738 154.513 122.257 157.337 129.923Z" fill="#F90707"/>
<path d="M209.026 72.4131L232.156 216.017L206.142 220.207L183.012 76.6032L209.026 72.4131Z" fill="#F90707"/>
<path d="M368.308 53.7912L382.838 198.518L359.517 200.859L281.426 109.124L280.225 109.245L290.122 207.826L263.904 210.458L249.375 65.731L272.836 63.3757L350.864 155.189L352.136 155.061L342.232 56.409L368.308 53.7912Z" fill="#F90707"/>
<path d="M415.395 197.032L412.234 51.612L506.814 49.5556L507.294 71.6385L439.057 73.1221L439.915 112.601L503.253 111.224L503.733 133.307L440.396 134.684L441.259 174.377L510.063 172.881L510.543 194.963L415.395 197.032Z" fill="#F90707"/>
<path d="M540.686 195.493L547.656 50.2055L640.731 54.6707L639.673 76.7334L572.917 73.5308L571.025 112.974L631.396 115.87L630.337 137.933L569.966 135.037L567.005 196.756L540.686 195.493Z" fill="#F90707"/>
<path d="M661.839 202.455L678.585 57.9675L704.759 61.0011L690.556 183.547L754.193 190.923L751.65 212.864L661.839 202.455Z" fill="#F90707"/>
<path d="M828.551 78.4093L804.621 221.882L778.631 217.547L802.561 74.0742L828.551 78.4093Z" fill="#F90707"/>
<path d="M890.034 89.8922L909.543 148.907L910.651 149.158L953.769 104.287L983.074 110.906L923.337 171.973L951.722 252.943L921.933 246.215L901.999 187.468L900.89 187.218L857.643 231.695L827.992 224.998L888.837 164.181L860.591 83.2423L890.034 89.8922Z" fill="#F90707"/>
</svg>
